<?xml version="1.0" standalone="no"?>
<!DOCTYPE svg PUBLIC "-//W3C//DTD SVG 20010904//EN"
 "http://www.w3.org/TR/2001/REC-SVG-20010904/DTD/svg10.dtd">
<svg version="1.0" xmlns="http://www.w3.org/2000/svg"
 width="512.000000pt" height="512.000000pt" viewBox="0 0 512.000000 512.000000"
 preserveAspectRatio="xMidYMid meet">
<metadata>
Created by potrace 1.14, written by Peter Selinger 2001-2017
</metadata>
<g transform="translate(0.000000,512.000000) scale(0.100000,-0.100000)"
fill="#000000" stroke="none">
<path d="M0 2560 l0 -2560 2560 0 2560 0 0 2560 0 2560 -2560 0 -2560 0 0
-2560z m754 1421 c163 -217 281 -364 307 -385 32 -25 91 -105 219 -301 128
-196 183 -271 205 -282 19 -10 75 -77 157 -192 71 -97 158 -214 195 -261 157
-200 493 -647 613 -815 66 -94 140 -221 140 -243 0 -7 12 -30 26 -51 22 -34
24 -42 12 -60 -14 -23 -53 -28 -91 -10 -19 9 -32 8 -59 -5 -27 -13 -41 -14
-62 -6 -15 5 -46 10 -69 10 -41 0 -43 2 -97 81 -136 201 -191 287 -347 552
-91 155 -443 732 -781 1282 -338 550 -622 1011 -631 1025 -33 54 8 1 263 -339z
m3991 83 c-11 -2 -207 -26 -436 -54 -305 -36 -428 -55 -462 -69 -38 -17 -93
-22 -359 -36 -268 -14 -319 -19 -353 -35 -22 -11 -82 -24 -135 -30 -52 -6
-171 -21 -265 -35 -350 -51 -886 -115 -1140 -136 -116 -10 -159 -10 -228 1
-48 7 -111 10 -145 7 -55 -6 -60 -5 -69 16 -8 17 -7 30 3 50 8 15 18 27 22 27
4 0 17 8 30 18 19 15 22 22 13 44 -8 21 -6 29 11 45 11 10 33 37 49 60 l29 42
108 4 c59 3 303 10 542 15 239 6 701 18 1025 27 1573 43 1816 49 1760 39z
m-861 -279 c9 -13 16 -40 16 -60 0 -25 5 -37 18 -41 9 -3 23 -8 30 -12 16 -9
54 -108 54 -142 1 -45 -29 -155 -60 -223 -73 -159 -526 -944 -674 -1168 -24
-35 -236 -418 -473 -851 -236 -433 -430 -786 -432 -784 -1 1 74 180 168 398
114 264 173 414 178 450 5 41 42 121 154 341 111 217 147 296 147 324 0 27 59
166 221 517 122 265 258 560 301 656 44 96 127 275 186 398 90 190 109 222
128 222 12 0 29 -11 38 -25z"/>
</g>
</svg>
